<?xml version="1.0" encoding="UTF-8" standalone="no"?>
<svg
   xmlns:dc="http://purl.org/dc/elements/1.1/"
   xmlns:cc="http://creativecommons.org/ns#"
   xmlns:rdf="http://www.w3.org/1999/02/22-rdf-syntax-ns#"
   xmlns:svg="http://www.w3.org/2000/svg"
   xmlns="http://www.w3.org/2000/svg"
   xmlns:sodipodi="http://sodipodi.sourceforge.net/DTD/sodipodi-0.dtd"
   xmlns:inkscape="http://www.inkscape.org/namespaces/inkscape"
   sodipodi:docname="forum_logo.svg"
   inkscape:version="1.0 (4035a4f, 2020-05-01)"
   id="svg909"
   version="1.1"
   viewBox="0 0 338.66666 169.33334"
   height="640"
   width="1280">
  <defs
     id="defs903" />
  <sodipodi:namedview
     inkscape:window-maximized="0"
     inkscape:window-y="25"
     inkscape:window-x="0"
     inkscape:window-height="696"
     inkscape:window-width="1252"
     units="px"
     showgrid="false"
     inkscape:document-rotation="0"
     inkscape:current-layer="layer1"
     inkscape:document-units="mm"
     inkscape:cy="283.95008"
     inkscape:cx="488.12447"
     inkscape:zoom="0.30536248"
     inkscape:pageshadow="2"
     inkscape:pageopacity="0.0"
     borderopacity="1.0"
     bordercolor="#666666"
     pagecolor="#ffffff"
     id="base" />
  <metadata
     id="metadata906">
    <rdf:RDF>
      <cc:Work
         rdf:about="">
        <dc:format>image/svg+xml</dc:format>
        <dc:type
           rdf:resource="http://purl.org/dc/dcmitype/StillImage" />
        <dc:title></dc:title>
      </cc:Work>
    </rdf:RDF>
  </metadata>
  <g
     id="layer1"
     inkscape:groupmode="layer"
     inkscape:label="Layer 1">
    <rect
       ry="61.518417"
       y="25.313099"
       x="18.439945"
       height="123.03683"
       width="303.25983"
       id="rect1666"
       style="opacity:0.78765432;fill:#474747;fill-rule:evenodd;stroke-width:0.79375;stroke-linejoin:bevel;stroke-dasharray:19.05, 0.79374999999999984" />
    <g
       id="g1628"
       transform="translate(-17.600265,-56.008334)">
      <g
         transform="matrix(0.26458333,0,0,0.26458333,49.373546,99.564771)"
         id="g42">
        <path
           inkscape:connector-curvature="0"
           id="path16"
           d="m 254.33255,261.8205 -30.371,24.276 c -2.485,1.961 -3.729,5.103 -3.26,8.234 0.468,3.131 2.577,5.771 5.527,6.919 2.95,1.149 6.289,0.63 8.751,-1.36 l 30.371,-24.276 c 2.485,-1.961 3.729,-5.103 3.26,-8.234 -0.468,-3.131 -2.577,-5.771 -5.527,-6.919 -2.95,-1.149 -6.289,-0.63 -8.751,1.36 z"
           style="fill:#a5a5a4" />
        <path
           inkscape:connector-curvature="0"
           id="path18"
           d="m 307.97855,156.6215 -18.629,-37.164 c -2.188,-4.353 -7.487,-6.113 -11.845,-3.935 -1.43,0.764 -2.615,1.919 -3.416,3.329 -2.026,-3.149 -5.954,-4.489 -9.483,-3.234 0.018,-0.303 0.019,-0.606 0.002,-0.909 -0.454,-2.298 -1.805,-4.321 -3.755,-5.62 -1.95,-1.299 -4.337,-1.768 -6.633,-1.302 l -44.138,8.828 c -4.447,0.892 -7.494,5.008 -7.049,9.522 0.445,4.514 4.238,7.955 8.774,7.961 0.585,-0.001 1.168,-0.058 1.741,-0.172 l 43.507,-8.702 -17.184,42.964 -40.193,-32.155 c -1.989,-1.592 -4.569,-2.248 -7.077,-1.797 -2.508,0.451 -4.699,1.962 -6.01,4.146 l -26.483,44.138 c -0.279,0.572 -0.493,1.173 -0.637,1.793 l -20.724,-46.484 c -0.952,-2.139 -2.716,-3.811 -4.902,-4.649 -2.186,-0.838 -4.616,-0.772 -6.753,0.184 -0.563,0.31 -1.089,0.684 -1.567,1.113 -2.667,-0.691 -5.503,-0.072 -7.64,1.667 l -52.965997,44.138 c -1.546,1.33 -2.574,3.162 -2.903,5.175 l -18.571,-45.848 c -1.831,-4.518 -6.978,-6.697 -11.496,-4.866 -4.518,1.831 -6.697,6.978 -4.866,11.496 l 18.629,45.992 c 0.875,2.172 2.578,3.907 4.735,4.82 2.157,0.913 4.588,0.93 6.757,0.046 2.841,-1.186 4.843,-3.787 5.261,-6.837 0.306,0.884 0.753,1.713 1.325,2.453 3.124,3.746 8.692,4.252 12.439997,1.129 l 49.699,-41.416 17.714,39.731 c 0.949,2.141 2.713,3.816 4.9,4.654 2.187,0.838 4.618,0.77 6.755,-0.189 2.293,-1.039 4.023,-3.02 4.743,-5.432 0.697,1.408 1.766,2.598 3.093,3.44 4.18,2.509 9.603,1.154 12.112,-3.026 l 21.284,-35.478 36.25,28.999 c 2.053,1.615 4.724,2.219 7.273,1.645 0.464,0.381 0.968,0.711 1.503,0.984 2.174,0.872 4.606,0.843 6.759,-0.08 2.153,-0.923 3.85,-2.666 4.716,-4.842 l 21.455,-53.642 17.718,35.344 c 1.408,2.828 4.22,4.688 7.374,4.876 3.154,0.188 6.167,-1.323 7.902,-3.964 1.734,-2.638 1.925,-6.004 0.499,-8.824 z"
           style="fill:#a5a5a4" />
        <path
           inkscape:connector-curvature="0"
           id="path20"
           d="m 174.08255,215.6695 c -2.678,-4.076 -8.153,-5.208 -12.228,-2.53 -4.075,2.678 -5.208,8.153 -2.53,12.229 l 37.259,56.672 c 2.678,4.076 8.153,5.208 12.229,2.53 4.075,-2.678 5.208,-8.153 2.53,-12.228 z"
           style="fill:#a5a5a4" />
        <path
           inkscape:connector-curvature="0"
           id="path22"
           d="m 280.48755,176.5705 -27.81,11.121 c -4.527,1.81 -6.731,6.946 -4.922,11.474 0.145,0.28 0.305,0.552 0.481,0.814 -0.945,0.247 -1.842,0.653 -2.653,1.199 -1.899,1.369 -3.176,3.438 -3.55,5.749 -0.373,2.311 0.187,4.676 1.558,6.574 l 22.862,31.69 c 1.845,2.556 4.913,3.934 8.05,3.615 3.136,-0.32 5.864,-2.288 7.155,-5.164 1.291,-2.876 0.95,-6.222 -0.894,-8.778 l -22.121,-30.662 c 0.194,-0.063 0.394,-0.037 0.586,-0.114 l 27.81,-11.121 c 4.524,-1.812 6.724,-6.946 4.916,-11.471 -1.809,-4.526 -6.941,-6.73 -11.468,-4.926 z"
           style="fill:#a5a5a4" />
        <path
           inkscape:connector-curvature="0"
           id="path24"
           d="m 165.53955,54.384496 35.31,8.828 c 4.717,1.147 9.475,-1.73 10.651,-6.44 1.176,-4.71 -1.672,-9.485 -6.375,-10.69 l -35.31,-8.828 c -4.717,-1.147 -9.475,1.73 -10.651,6.44 -1.176,4.711 1.672,9.486 6.375,10.69 z"
           style="fill:#a5a5a4" />
        <path
           inkscape:connector-curvature="0"
           id="path26"
           d="m 88.21955,63.475496 c 0.585,-10e-4 1.168,-0.058 1.741,-0.172 l 44.138,-8.828 c 3.1,-0.611 5.637,-2.833 6.652,-5.825 1.015,-2.992 0.353,-6.299 -1.736,-8.67 -2.089,-2.371 -5.285,-3.445 -8.382,-2.815 l -44.138,8.828 c -4.447,0.892 -7.494,5.008 -7.049,9.522 0.447,4.512 4.239,7.954 8.774,7.96 z"
           style="fill:#a5a5a4" />
        <path
           inkscape:connector-curvature="0"
           id="path28"
           d="m 35.254553,116.4405 c 2.78,0.005 5.4,-1.302 7.069,-3.526 l 23.397,-31.160004 c 1.906,-2.522 2.318,-5.87 1.081,-8.779 -1.237,-2.909 -3.935,-4.935 -7.073,-5.311 -3.138,-0.377 -6.239,0.953 -8.129,3.487 l -23.396,31.159004 c -2.008,2.673 -2.333,6.252 -0.84,9.244 1.492,2.992 4.547,4.884 7.891,4.886 z"
           style="fill:#a5a5a4" />
        <path
           inkscape:connector-curvature="0"
           id="path30"
           d="m 141.19455,195.8895 h -61.793 c -4.874997,0 -8.827997,3.952 -8.827997,8.828 0,4.876 3.952,8.828 8.827997,8.828 h 61.793 c 4.875,0 8.828,-3.952 8.828,-8.828 0,-4.876 -3.953,-8.828 -8.828,-8.828 z"
           style="fill:#a5a5a4" />
        <path
           inkscape:connector-curvature="0"
           id="path32"
           d="m 254.46155,103.1085 c 2.427,2.014 5.744,2.581 8.702,1.486 2.958,-1.095 5.107,-3.684 5.638,-6.793004 0.531,-3.109 -0.637,-6.265 -3.064,-8.279 l -25.948,-21.543 c -2.427,-2.014 -5.744,-2.581 -8.702,-1.486 -2.958,1.095 -5.107,3.684 -5.638,6.793 -0.531,3.109 0.637,6.265 3.064,8.279 z"
           style="fill:#a5a5a4" />
        <path
           inkscape:connector-curvature="0"
           id="path34"
           d="m 52.918553,116.4405 c -4.875,0 -8.828,3.952 -8.828,8.828 0,4.875 3.952,8.828 8.828,8.828 h 52.965997 c 4.875,0 8.828,-3.952 8.828,-8.828 0,-4.875 -3.952,-8.828 -8.828,-8.828 z"
           style="fill:#a5a5a4" />
        <path
           inkscape:connector-curvature="0"
           id="path36"
           d="m 141.19455,116.4405 c -4.875,0 -8.828,3.952 -8.828,8.828 0,4.875 3.952,8.828 8.828,8.828 h 35.31 c 4.875,0 8.828,-3.952 8.828,-8.828 0,-4.875 -3.952,-8.828 -8.828,-8.828 z"
           style="fill:#a5a5a4" />
        <path
           inkscape:connector-curvature="0"
           id="path38"
           d="m 178.23755,213.3715 44.138,-8.828 c 4.767,-0.969 7.852,-5.613 6.897,-10.383 -0.955,-4.77 -5.589,-7.868 -10.362,-6.928 l -44.138,8.828 c -4.447,0.892 -7.494,5.008 -7.049,9.521 0.445,4.513 4.238,7.955 8.773,7.961 0.584,0.001 1.167,-0.057 1.741,-0.171 z"
           style="fill:#a5a5a4" />
        <path
           inkscape:connector-curvature="0"
           id="path40"
           d="m 74.194553,86.440496 44.577997,28.604004 0.144,0.066 0.079,0.072 c 0.446,0.239 0.912,0.438 1.392,0.595 0.261,0.1 0.504,0.254 0.769,0.329 0.772,0.22 1.57,0.332 2.373,0.335 0.737,-0.001 1.471,-0.095 2.184,-0.277 0.238,-0.061 0.456,-0.185 0.689,-0.265 0.467,-0.142 0.921,-0.323 1.358,-0.54 0.259,-0.164 0.508,-0.341 0.749,-0.531 0.371,-0.232 0.724,-0.492 1.056,-0.777 0.226,-0.241 0.439,-0.494 0.637,-0.758 0.277,-0.286 0.533,-0.59 0.767,-0.912 l 0.039,-0.1 0.099,-0.124 20.664,-34.444004 36.147,36.142004 c 2.223,2.264 5.49,3.16 8.556,2.348 3.067,-0.812 5.462,-3.207 6.274,-6.274 0.812,-3.067 -0.085,-6.333 -2.348,-8.556 l -44.138,-44.138004 c -1.921,-1.923 -4.622,-2.853 -7.32,-2.522 -2.698,0.332 -5.093,1.889 -6.491,4.22 l -21.802,36.337 -36.921,-23.692 c -4.104,-2.622 -9.554997,-1.426 -12.184997,2.673 -2.63,4.099 -1.443,9.553 2.651,12.189 z"
           style="fill:#a5a5a4" />
      </g>
      <g
         transform="matrix(0.26458333,0,0,0.26458333,17.548549,97.370977)"
         id="g70">
        <circle
           id="circle44"
           r="26.483"
           cy="54.112"
           cx="270.30499"
           style="fill:#46b29d" />
        <circle
           id="circle46"
           r="26.483"
           cy="133.56"
           cx="243.823"
           style="fill:#46b29d" />
        <circle
           id="circle48"
           r="26.483"
           cy="133.56"
           cx="314.44299"
           style="fill:#46b29d" />
        <circle
           id="circle50"
           r="26.483"
           cy="204.181"
           cx="358.58099"
           style="fill:#46b29d" />
        <circle
           id="circle52"
           r="26.483"
           cy="71.766998"
           cx="190.85699"
           style="fill:#46b29d" />
        <circle
           id="circle54"
           r="26.483"
           cy="133.56"
           cx="155.547"
           style="fill:#46b29d" />
        <circle
           id="circle56"
           r="26.483"
           cy="213.008"
           cx="182.03"
           style="fill:#46b29d" />
        <circle
           id="circle58"
           r="26.483"
           cy="213.008"
           cx="279.133"
           style="fill:#46b29d" />
        <circle
           id="circle60"
           r="26.483"
           cy="186.52499"
           cx="420.37399"
           style="fill:#46b29d" />
        <circle
           id="circle62"
           r="26.483"
           cy="115.905"
           cx="393.892"
           style="fill:#46b29d" />
        <circle
           id="circle64"
           r="26.483"
           cy="71.766998"
           cx="340.92599"
           style="fill:#46b29d" />
        <circle
           id="circle66"
           r="26.483"
           cy="301.284"
           cx="332.099"
           style="fill:#46b29d" />
        <circle
           id="circle68"
           r="26.483"
           cy="265.974"
           cx="393.892"
           style="fill:#46b29d" />
      </g>
    </g>
    <text
       xml:space="preserve"
       style="font-style:normal;font-variant:normal;font-weight:normal;font-stretch:normal;font-size:14.1111px;line-height:1.25;font-family:'Arial Rounded MT Bold';-inkscape-font-specification:'Arial Rounded MT Bold, Normal';font-variant-ligatures:normal;font-variant-caps:normal;font-variant-numeric:normal;font-variant-east-asian:normal;stroke-width:0.264583"
       x="129.14626"
       y="84.375992"
       id="text1632"><tspan
         sodipodi:role="line"
         x="129.14626"
         y="84.375992"
         style="font-style:normal;font-variant:normal;font-weight:normal;font-stretch:normal;font-size:14.1111px;font-family:'Arial Rounded MT Bold';-inkscape-font-specification:'Arial Rounded MT Bold, Normal';font-variant-ligatures:normal;font-variant-caps:normal;font-variant-numeric:normal;font-variant-east-asian:normal;stroke-width:0.264583"
         id="tspan1654">Way To Machine Learning</tspan><tspan
         sodipodi:role="line"
         x="129.14626"
         y="102.01487"
         style="font-style:normal;font-variant:normal;font-weight:normal;font-stretch:normal;font-size:14.1111px;font-family:'Arial Rounded MT Bold';-inkscape-font-specification:'Arial Rounded MT Bold, Normal';font-variant-ligatures:normal;font-variant-caps:normal;font-variant-numeric:normal;font-variant-east-asian:normal;stroke-width:0.264583"
         id="tspan1664">Online Discussion forum</tspan></text>
  </g>
</svg>
